<svg id="svg" version="1.1" xmlns="http://www.w3.org/2000/svg" xmlns:xlink="http://www.w3.org/1999/xlink" width="400" height="280" viewBox="0, 0, 400,280"><g id="svgg"><path id="path0" d="M24.272 42.000 C 15.317 56.601,15.200 58.192,15.200 164.842 L 15.200 263.284 19.295 271.242 L 23.390 279.200 201.181 279.607 L 378.972 280.014 382.041 275.607 C 388.661 266.102,388.801 263.804,388.761 165.761 C 388.720 66.612,388.540 63.779,381.272 47.567 C 377.086 38.228,374.451 35.719,377.641 44.107 C 378.736 46.988,379.668 74.243,380.180 118.329 L 380.988 188.000 368.494 200.000 L 356.000 212.000 367.557 200.000 L 379.114 188.000 378.106 153.293 L 377.098 118.585 367.480 127.290 C 355.696 137.953,356.933 140.425,356.726 105.800 C 356.630 89.721,355.834 74.506,354.956 71.989 C 351.427 61.866,359.933 62.400,202.333 62.400 L 58.954 62.400 54.277 67.077 C 49.646 71.708,49.600 71.937,49.600 90.277 L 49.600 108.800 37.600 108.800 L 25.600 108.800 25.675 122.000 L 25.750 135.200 37.675 122.544 L 49.600 109.888 49.600 141.344 L 49.600 172.800 37.846 172.800 L 26.092 172.800 25.046 153.349 C 23.137 117.853,23.795 54.287,26.166 45.149 C 28.703 35.368,28.523 35.069,24.272 42.000 M338.764 70.836 L 343.200 75.273 343.200 143.375 L 343.200 211.477 338.711 215.339 L 334.222 219.200 201.067 219.200 C 55.646 219.200,63.384 219.702,59.368 210.005 C 55.678 201.097,57.696 76.315,61.600 71.978 C 67.139 65.823,68.473 65.768,202.764 66.087 L 334.328 66.400 338.764 70.836 M110.687 119.402 C 83.988 133.004,94.280 174.400,124.361 174.400 C 151.839 174.400,163.258 138.811,141.183 121.973 C 134.031 116.519,118.858 115.239,110.687 119.402 M301.200 132.260 C 298.414 133.384,298.694 136.000,301.600 136.000 C 302.920 136.000,304.000 134.920,304.000 133.600 C 304.000 132.280,303.820 131.257,303.600 131.326 C 303.380 131.396,302.300 131.816,301.200 132.260 M129.280 139.520 C 131.755 141.995,131.755 149.205,129.280 151.680 C 126.055 154.905,120.261 153.886,117.453 149.600 C 112.586 142.172,123.031 133.271,129.280 139.520 M267.200 143.287 C 265.880 143.571,260.767 144.246,255.838 144.787 C 246.277 145.837,243.187 152.676,251.716 153.911 C 256.706 154.634,260.566 162.246,258.013 166.333 C 256.325 169.036,256.503 169.757,259.216 171.209 C 260.967 172.146,262.400 173.989,262.400 175.304 C 262.400 177.324,265.566 177.626,282.800 177.248 L 303.200 176.800 303.670 166.121 C 304.114 156.040,303.935 155.412,300.470 154.921 C 298.087 154.583,296.621 153.138,296.289 150.800 C 295.677 146.494,294.797 146.345,290.889 149.882 C 288.093 152.412,287.517 152.276,280.716 147.482 C 273.762 142.580,272.422 142.164,267.200 143.287 M224.000 160.605 C 224.000 168.340,233.380 177.492,241.373 177.557 C 252.928 177.650,241.889 159.251,228.400 155.935 C 224.215 154.906,224.000 155.135,224.000 160.605 M224.000 173.650 C 224.000 176.230,228.259 178.675,229.897 177.036 C 231.037 175.897,227.421 171.200,225.404 171.200 C 224.632 171.200,224.000 172.303,224.000 173.650 M37.075 189.413 C 29.884 196.781,24.000 202.094,24.000 201.221 C 24.000 199.121,48.311 174.178,49.347 175.214 C 49.789 175.656,44.267 182.045,37.075 189.413 M355.942 230.859 C 355.385 233.080,353.133 236.585,350.937 238.648 L 346.945 242.400 271.581 242.846 C 215.191 243.180,195.608 243.784,193.801 245.246 C 191.888 246.794,191.636 246.784,192.587 245.200 C 194.330 242.300,121.610 242.300,118.485 245.200 C 116.761 246.800,116.556 246.800,117.460 245.200 C 118.345 243.632,112.314 243.200,89.534 243.200 L 60.480 243.200 55.040 237.760 C 52.048 234.768,49.600 231.157,49.600 229.735 C 49.600 227.958,51.059 228.783,54.268 232.375 L 58.937 237.600 200.698 238.026 C 355.440 238.490,349.695 238.809,353.929 229.516 C 356.144 224.656,357.305 225.431,355.942 230.859 M26.168 244.800 C 26.891 248.740,26.729 249.689,25.622 248.000 C 24.757 246.680,24.038 243.860,24.025 241.733 C 23.992 236.598,24.902 237.900,26.168 244.800 " stroke="none" fill="#000000" fill-rule="evenodd"></path></g></svg>