<svg id="svg" version="1.1" xmlns="http://www.w3.org/2000/svg" xmlns:xlink="http://www.w3.org/1999/xlink" width="400" height="409.9585062240664" viewBox="0, 0, 400,409.9585062240664"><g id="svgg"><path id="path0" d="M137.035 19.532 C 137.035 19.562,137.285 19.812,137.591 20.088 L 138.146 20.589 137.644 20.034 C 137.176 19.517,137.035 19.400,137.035 19.532 M239.727 21.183 C 239.727 21.291,239.798 21.334,239.885 21.281 C 239.973 21.227,240.076 21.318,240.116 21.484 C 240.175 21.734,240.185 21.730,240.171 21.457 C 240.153 21.111,239.727 20.848,239.727 21.183 M190.602 83.735 C 105.026 90.105,53.498 182.527,92.283 260.086 C 125.663 326.838,210.268 347.253,269.543 302.858 C 321.206 264.164,333.607 190.777,297.605 136.779 C 288.969 123.825,277.690 112.558,264.454 103.661 C 247.576 92.315,230.197 86.069,209.654 83.964 C 206.543 83.646,193.856 83.493,190.602 83.735 M201.709 172.794 C 201.897 172.840,202.396 172.934,202.819 173.003 C 203.941 173.186,203.998 173.199,205.211 173.516 C 205.822 173.675,206.437 173.830,206.578 173.859 C 206.719 173.889,207.488 174.158,208.287 174.457 C 209.086 174.756,209.816 175.017,209.910 175.037 C 210.004 175.056,210.327 175.202,210.628 175.362 C 210.929 175.521,211.288 175.651,211.427 175.651 C 211.566 175.651,211.801 175.772,211.948 175.920 C 212.096 176.068,212.217 176.147,212.217 176.096 C 212.217 176.045,212.497 176.193,212.839 176.425 C 213.181 176.658,213.559 176.848,213.679 176.848 C 213.799 176.848,213.923 176.905,213.954 176.976 C 214.016 177.115,216.077 178.556,216.215 178.556 C 216.261 178.556,216.591 178.825,216.949 179.153 C 217.307 179.482,217.653 179.751,217.720 179.751 C 217.923 179.753,221.148 182.890,221.956 183.874 C 222.336 184.336,222.792 184.883,223.321 185.512 C 223.416 185.625,223.494 185.801,223.494 185.902 C 223.494 186.003,223.610 186.129,223.751 186.183 C 223.891 186.237,224.007 186.389,224.007 186.520 C 224.007 186.651,224.084 186.758,224.178 186.758 C 224.272 186.758,224.349 186.873,224.349 187.014 C 224.349 187.155,224.425 187.270,224.519 187.270 C 224.613 187.270,224.690 187.379,224.690 187.512 C 224.690 187.646,224.748 187.780,224.818 187.811 C 225.535 188.130,228.161 194.672,228.889 197.950 C 230.072 203.280,229.719 208.945,227.854 214.524 C 227.145 216.647,225.531 220.271,225.098 220.714 C 224.985 220.829,224.790 221.156,224.665 221.440 C 224.539 221.724,224.378 221.956,224.307 221.956 C 224.236 221.956,224.178 222.039,224.178 222.140 C 224.178 222.240,224.082 222.423,223.964 222.546 C 223.847 222.668,223.635 222.944,223.494 223.158 C 223.353 223.372,223.103 223.668,222.939 223.815 C 222.774 223.962,222.640 224.153,222.640 224.239 C 222.640 224.325,222.467 224.567,222.255 224.778 C 222.044 224.989,221.410 225.670,220.846 226.292 C 219.658 227.603,217.853 229.150,215.898 230.533 C 215.142 231.068,214.442 231.568,214.343 231.644 C 214.100 231.828,213.384 232.207,211.493 233.151 C 209.107 234.342,208.915 234.429,208.512 234.506 C 208.306 234.545,207.980 234.662,207.786 234.766 C 207.591 234.869,207.433 234.912,207.433 234.861 C 207.433 234.809,207.164 234.879,206.835 235.017 C 206.506 235.154,206.237 235.237,206.237 235.202 C 206.237 235.166,205.987 235.213,205.681 235.306 C 205.376 235.399,204.934 235.510,204.699 235.554 C 204.464 235.597,204.041 235.684,203.759 235.746 C 201.976 236.139,200.918 236.222,197.693 236.222 C 194.761 236.222,193.958 236.172,192.140 235.871 C 191.284 235.729,191.260 235.724,190.431 235.492 C 190.056 235.386,189.517 235.254,189.235 235.198 C 188.796 235.110,188.317 235.001,188.167 234.955 C 188.144 234.948,188.067 234.935,187.997 234.925 C 187.926 234.916,187.729 234.834,187.558 234.743 C 187.388 234.651,187.080 234.545,186.875 234.507 C 186.434 234.424,186.387 234.403,183.853 233.138 C 182.772 232.598,181.620 231.976,181.293 231.755 C 180.966 231.535,180.601 231.354,180.481 231.354 C 180.362 231.354,180.265 231.277,180.265 231.183 C 180.265 231.089,180.189 231.012,180.095 231.012 C 180.002 231.012,179.752 230.867,179.540 230.689 C 179.328 230.511,178.383 229.750,177.440 228.998 C 175.462 227.420,174.969 226.960,174.028 225.810 C 173.652 225.351,173.172 224.792,172.960 224.569 C 172.749 224.345,172.576 224.106,172.576 224.037 C 172.576 223.968,172.441 223.785,172.277 223.630 C 171.805 223.184,171.551 222.840,171.551 222.647 C 171.551 222.549,171.474 222.469,171.380 222.469 C 171.286 222.469,171.209 222.354,171.209 222.213 C 171.209 222.072,171.132 221.956,171.038 221.956 C 170.944 221.956,170.867 221.841,170.867 221.700 C 170.867 221.559,170.790 221.444,170.696 221.444 C 170.602 221.444,170.525 221.334,170.525 221.200 C 170.525 221.065,170.428 220.854,170.310 220.730 C 170.191 220.606,169.995 220.312,169.874 220.077 C 169.753 219.842,169.423 219.227,169.141 218.710 C 168.859 218.193,168.472 217.347,168.282 216.830 C 167.488 214.676,167.079 213.474,167.005 213.071 C 166.961 212.836,166.847 212.400,166.751 212.102 C 166.656 211.804,166.548 211.381,166.511 211.162 C 166.340 210.146,166.085 208.666,166.000 208.202 C 165.560 205.789,165.877 200.632,166.690 197.010 C 166.845 196.323,166.849 196.307,167.350 194.789 C 167.614 193.990,167.848 193.259,167.870 193.165 C 168.015 192.557,170.219 188.090,170.525 187.783 C 170.783 187.526,171.380 186.575,171.380 186.423 C 171.380 186.325,171.457 186.245,171.551 186.245 C 171.645 186.245,171.721 186.138,171.721 186.007 C 171.721 185.876,171.837 185.725,171.978 185.671 C 172.119 185.617,172.234 185.493,172.234 185.396 C 172.234 185.231,172.475 184.929,173.267 184.103 C 173.451 183.912,173.601 183.703,173.601 183.639 C 173.601 183.402,177.028 180.213,178.556 179.030 C 179.073 178.629,179.522 178.244,179.553 178.173 C 179.584 178.102,179.704 178.044,179.820 178.044 C 179.935 178.044,180.179 177.905,180.361 177.736 C 180.543 177.567,180.807 177.373,180.948 177.305 C 181.089 177.238,181.512 176.994,181.888 176.764 C 182.650 176.297,184.017 175.603,184.280 175.550 C 184.374 175.531,184.836 175.340,185.305 175.127 C 185.775 174.914,186.198 174.730,186.245 174.719 C 186.292 174.707,186.869 174.515,187.527 174.292 C 188.185 174.069,188.723 173.908,188.723 173.935 C 188.723 173.961,189.011 173.863,189.364 173.715 C 189.716 173.568,190.004 173.477,190.004 173.512 C 190.004 173.548,190.254 173.504,190.560 173.414 C 190.865 173.324,191.384 173.211,191.713 173.161 C 192.042 173.112,192.408 173.039,192.526 172.999 C 192.645 172.960,193.221 172.877,193.808 172.816 C 194.394 172.756,194.908 172.674,194.950 172.636 C 195.053 172.542,201.274 172.687,201.709 172.794 M397.798 234.788 C 397.694 235.089,397.613 235.420,397.620 235.523 C 397.627 235.627,397.742 235.410,397.877 235.043 C 398.012 234.675,398.092 234.344,398.055 234.308 C 398.019 234.271,397.903 234.487,397.798 234.788 M395.643 238.597 C 394.948 239.425,394.866 239.582,395.385 239.091 C 395.705 238.789,395.933 238.508,395.890 238.468 C 395.848 238.427,395.737 238.486,395.643 238.597 M323.452 343.785 C 323.452 344.104,323.497 344.149,323.657 343.990 C 323.816 343.830,323.816 343.739,323.657 343.580 C 323.497 343.420,323.452 343.466,323.452 343.785 M76.378 368.443 C 76.378 368.472,76.628 368.722,76.933 368.998 L 77.488 369.500 76.986 368.945 C 76.519 368.427,76.378 368.311,76.378 368.443 M240.239 385.543 C 240.239 385.706,240.162 385.791,240.068 385.733 C 239.974 385.675,239.897 385.747,239.897 385.893 C 239.897 386.040,239.969 386.160,240.057 386.160 C 240.249 386.160,240.483 385.492,240.340 385.350 C 240.285 385.294,240.239 385.381,240.239 385.543 M239.214 388.808 C 239.099 388.947,238.936 389.019,238.853 388.967 C 238.770 388.916,238.701 388.955,238.701 389.054 C 238.701 389.285,238.989 389.290,239.130 389.062 C 239.189 388.966,239.304 388.929,239.385 388.979 C 239.466 389.029,239.577 388.997,239.632 388.908 C 239.804 388.630,239.435 388.542,239.214 388.808 M120.974 395.301 C 121.209 395.435,121.478 395.545,121.572 395.545 C 121.666 395.545,121.551 395.435,121.316 395.301 C 121.081 395.167,120.812 395.057,120.718 395.057 C 120.624 395.057,120.739 395.167,120.974 395.301 M189.022 410.038 C 195.671 410.063,206.551 410.063,213.199 410.038 C 219.848 410.014,214.408 409.993,201.111 409.993 C 187.813 409.993,182.373 410.014,189.022 410.038 " stroke="none" fill="#ffffff" fill-rule="evenodd"></path><path id="path1" d="M176.420 0.793 C 168.754 1.658,164.506 6.858,162.757 17.514 C 160.432 31.678,159.834 34.095,158.423 35.029 C 155.385 37.042,149.148 34.355,145.248 29.353 C 135.531 16.893,131.802 13.949,126.100 14.236 C 123.989 14.343,122.393 14.827,120.447 15.951 C 116.153 18.431,114.443 19.436,102.947 26.228 C 100.598 27.617,97.715 29.305,96.540 29.979 C 94.591 31.098,91.683 32.807,82.187 38.410 C 80.355 39.491,78.548 40.608,78.172 40.892 C 73.074 44.742,71.961 50.300,74.405 59.707 C 74.630 60.572,74.863 61.611,74.924 62.015 C 74.984 62.419,75.098 62.874,75.177 63.028 C 75.256 63.181,75.536 64.018,75.800 64.887 C 76.063 65.756,76.344 66.467,76.424 66.467 C 76.503 66.467,76.525 66.539,76.471 66.626 C 76.417 66.713,76.537 67.193,76.739 67.694 C 77.528 69.657,77.319 74.250,76.347 76.320 C 74.483 80.286,68.826 81.304,62.537 78.806 C 53.745 75.313,48.830 74.496,44.796 75.855 C 41.517 76.960,39.665 79.044,36.055 85.690 C 35.647 86.442,34.276 88.864,33.010 91.072 C 31.744 93.281,30.041 96.279,29.227 97.736 C 28.412 99.193,26.933 101.807,25.940 103.545 C 24.264 106.480,21.390 111.541,16.528 120.120 C 12.961 126.413,12.475 128.517,13.550 133.020 C 13.797 134.054,14.119 135.438,14.265 136.096 C 14.539 137.328,15.662 139.940,15.918 139.940 C 15.997 139.940,16.062 140.020,16.062 140.118 C 16.062 140.294,17.285 142.032,17.719 142.473 C 17.841 142.597,17.942 142.751,17.944 142.814 C 17.945 142.878,18.330 143.349,18.798 143.861 C 19.266 144.373,19.650 144.841,19.650 144.901 C 19.650 144.996,24.035 148.825,24.144 148.825 C 24.168 148.825,24.760 149.359,25.460 150.011 C 26.160 150.663,26.757 151.173,26.785 151.144 C 26.814 151.116,27.087 151.332,27.391 151.625 C 27.695 151.918,28.250 152.442,28.624 152.790 C 29.431 153.541,29.787 153.951,29.631 153.951 C 29.569 153.951,29.612 154.064,29.726 154.201 C 30.755 155.441,29.678 158.989,27.716 160.820 C 25.540 162.852,24.062 163.557,21.017 164.015 C 19.654 164.220,17.375 164.577,15.953 164.807 C 8.180 166.067,3.169 168.749,1.279 172.661 C -0.007 175.323,0.095 172.937,0.032 201.709 C -0.025 227.527,0.009 229.426,0.550 230.842 C 0.715 231.275,1.026 232.766,1.047 233.234 C 1.082 233.981,2.250 236.911,2.620 237.183 C 2.699 237.240,2.737 237.339,2.706 237.403 C 2.483 237.854,5.513 240.473,7.433 241.488 C 9.367 242.512,13.551 244.092,13.845 243.910 C 13.923 243.862,14.039 243.905,14.102 244.007 C 14.165 244.109,14.327 244.150,14.462 244.098 C 14.597 244.046,14.840 244.075,15.000 244.161 C 15.161 244.248,16.023 244.448,16.916 244.605 C 20.246 245.193,22.881 246.067,25.433 247.430 C 27.780 248.683,27.938 248.871,28.521 251.093 C 28.792 252.125,29.210 253.644,29.449 254.470 L 29.885 255.971 29.540 256.776 C 28.720 258.692,27.551 259.847,21.445 264.773 C 14.688 270.226,12.010 275.916,13.572 281.504 C 13.704 281.974,13.897 282.819,14.003 283.383 C 14.441 285.733,15.076 287.216,17.000 290.389 C 17.228 290.765,17.502 291.284,17.609 291.542 C 17.716 291.801,17.886 292.012,17.986 292.012 C 18.087 292.012,18.125 292.056,18.071 292.110 C 17.956 292.224,19.266 294.600,19.546 294.786 C 19.650 294.855,19.666 294.913,19.581 294.914 C 19.495 294.916,19.540 295.051,19.681 295.216 C 19.821 295.380,20.034 295.765,20.155 296.070 C 20.276 296.375,20.434 296.625,20.506 296.625 C 20.579 296.625,20.685 296.812,20.742 297.041 C 20.799 297.269,20.942 297.558,21.060 297.684 C 21.177 297.809,21.420 298.199,21.599 298.550 C 21.778 298.901,21.994 299.188,22.079 299.188 C 22.164 299.188,22.185 299.265,22.127 299.359 C 22.069 299.453,22.095 299.530,22.184 299.530 C 22.273 299.530,22.393 299.717,22.451 299.945 C 22.508 300.174,22.652 300.462,22.771 300.586 C 22.890 300.710,23.137 301.149,23.320 301.561 C 23.503 301.973,23.807 302.507,23.995 302.746 C 24.184 302.986,24.351 303.275,24.368 303.388 C 24.385 303.502,24.602 303.930,24.851 304.339 C 25.491 305.393,25.476 305.366,26.857 307.793 C 28.590 310.837,28.718 311.047,28.939 311.189 C 29.045 311.258,29.068 311.316,28.989 311.317 C 28.804 311.321,30.175 313.848,30.636 314.353 C 30.829 314.564,30.930 314.737,30.860 314.737 C 30.791 314.737,30.907 315.045,31.118 315.421 C 31.330 315.797,31.570 316.104,31.652 316.104 C 31.734 316.104,31.757 316.176,31.703 316.263 C 31.649 316.351,31.672 316.464,31.753 316.514 C 31.835 316.565,32.200 317.185,32.564 317.893 C 32.928 318.601,33.286 319.180,33.358 319.180 C 33.431 319.180,33.490 319.255,33.490 319.348 C 33.490 319.566,36.583 325.042,36.784 325.179 C 36.868 325.237,36.926 325.352,36.914 325.436 C 36.901 325.519,37.321 326.318,37.846 327.211 C 38.372 328.103,38.892 328.988,39.002 329.176 C 40.195 331.208,42.535 333.874,43.126 333.874 C 43.261 333.874,43.397 333.946,43.429 334.032 C 43.460 334.119,43.599 334.216,43.738 334.246 C 43.877 334.277,44.082 334.386,44.194 334.489 C 45.817 335.983,52.174 335.862,58.322 334.222 C 59.425 333.928,62.145 333.424,63.477 333.266 C 64.164 333.185,68.025 333.183,68.157 333.264 C 68.214 333.299,68.649 333.370,69.124 333.421 C 70.237 333.540,72.033 334.195,73.172 334.897 C 73.935 335.367,74.392 335.826,75.780 337.519 C 76.654 338.585,76.164 343.827,74.753 348.511 C 73.243 353.524,72.771 358.265,73.532 360.786 C 73.702 361.350,73.952 362.457,74.088 363.246 C 74.316 364.570,74.443 364.982,74.988 366.168 C 75.583 367.464,77.689 369.927,78.201 369.927 C 78.317 369.927,78.473 370.034,78.548 370.165 C 78.623 370.296,78.927 370.546,79.224 370.721 C 79.521 370.895,80.405 371.422,81.189 371.892 C 81.973 372.361,82.672 372.726,82.742 372.703 C 82.813 372.680,82.871 372.738,82.871 372.832 C 82.871 372.926,82.979 373.003,83.113 373.003 C 83.246 373.003,83.380 373.069,83.412 373.150 C 83.469 373.299,85.040 374.213,86.459 374.924 C 86.882 375.136,87.269 375.364,87.319 375.430 C 87.369 375.497,88.868 376.403,90.651 377.443 C 92.433 378.484,94.007 379.406,94.148 379.494 C 94.455 379.684,94.887 379.940,99.600 382.720 C 101.611 383.907,103.294 384.852,103.339 384.821 C 103.385 384.789,103.469 384.833,103.526 384.917 C 103.584 385.001,104.131 385.359,104.742 385.712 C 105.352 386.066,105.968 386.428,106.109 386.517 C 106.249 386.606,106.595 386.795,106.877 386.938 C 107.159 387.080,107.595 387.328,107.846 387.489 C 109.188 388.352,112.336 390.163,112.367 390.090 C 112.387 390.043,112.582 390.170,112.801 390.372 C 113.020 390.575,113.595 390.959,114.079 391.227 C 114.563 391.494,115.755 392.174,116.727 392.738 C 117.700 393.302,118.611 393.822,118.752 393.894 C 118.893 393.965,119.240 394.175,119.522 394.361 C 120.188 394.798,121.877 395.619,122.042 395.584 C 122.112 395.569,122.170 395.647,122.170 395.757 C 122.170 395.866,122.216 395.911,122.271 395.855 C 122.327 395.799,122.711 395.899,123.125 396.077 C 123.540 396.254,123.879 396.355,123.879 396.299 C 123.879 396.244,123.998 396.298,124.143 396.418 C 124.433 396.660,127.683 396.756,128.578 396.550 C 128.859 396.485,129.282 396.391,129.517 396.340 C 129.752 396.289,130.098 396.177,130.286 396.091 C 130.474 396.004,130.894 395.833,131.218 395.710 C 131.975 395.424,134.556 393.725,135.302 393.022 C 135.618 392.725,135.926 392.482,135.987 392.482 C 136.165 392.482,138.919 389.850,138.917 389.681 C 138.916 389.598,139.023 389.444,139.155 389.340 C 139.287 389.235,139.902 388.535,140.522 387.783 C 141.142 387.031,141.842 386.223,142.076 385.987 C 142.311 385.751,142.503 385.500,142.503 385.429 C 142.503 385.358,142.779 385.012,143.117 384.662 C 144.085 383.655,144.212 383.495,144.212 383.283 C 144.212 383.174,144.277 383.084,144.358 383.084 C 144.438 383.084,144.872 382.615,145.322 382.042 C 146.107 381.043,146.288 380.834,147.320 379.731 C 148.043 378.958,148.790 378.300,148.944 378.300 C 149.022 378.300,149.277 378.127,149.511 377.915 C 151.516 376.103,154.926 375.520,157.074 376.623 C 157.466 376.824,158.726 378.186,159.156 378.875 C 159.341 379.169,159.533 379.449,159.583 379.496 C 160.102 379.977,161.145 383.101,161.552 385.391 C 161.703 386.237,161.903 387.171,161.997 387.467 C 162.091 387.763,162.235 388.378,162.317 388.834 C 162.572 390.254,162.659 390.669,162.831 391.286 C 163.233 392.734,163.794 395.102,163.928 395.920 C 164.060 396.725,164.479 398.278,164.729 398.889 C 164.845 399.171,164.963 399.524,164.993 399.674 C 165.099 400.206,166.419 403.299,166.656 403.570 C 166.788 403.721,166.950 404.018,167.014 404.229 C 167.078 404.440,167.203 404.613,167.290 404.613 C 167.378 404.613,167.450 404.696,167.450 404.796 C 167.450 404.897,167.546 405.080,167.663 405.203 C 167.781 405.325,167.992 405.602,168.133 405.818 C 168.533 406.430,169.524 407.518,169.682 407.518 C 169.760 407.518,170.020 407.699,170.259 407.921 C 170.792 408.415,172.545 409.302,173.345 409.482 C 173.533 409.524,173.994 409.637,174.370 409.733 C 175.017 409.898,226.081 410.013,226.367 409.851 C 226.431 409.814,226.634 409.808,226.816 409.837 C 226.999 409.866,227.223 409.844,227.314 409.787 C 227.406 409.731,227.705 409.667,227.980 409.645 C 231.759 409.348,236.190 402.805,237.059 396.241 C 237.102 395.912,237.295 394.994,237.488 394.200 C 237.680 393.406,237.888 392.311,237.950 391.765 C 238.012 391.220,238.129 390.773,238.211 390.773 C 238.293 390.773,238.362 390.485,238.365 390.132 C 238.371 389.428,238.646 388.962,239.043 388.985 C 239.620 389.019,240.619 386.372,240.095 386.197 C 239.986 386.161,239.897 386.018,239.897 385.879 C 239.897 385.740,239.966 385.669,240.050 385.721 C 240.227 385.831,240.480 384.977,240.319 384.815 C 240.259 384.756,240.121 384.705,240.011 384.703 C 239.574 384.693,240.830 381.824,241.473 381.365 C 241.547 381.312,241.800 381.009,242.034 380.691 C 242.269 380.373,242.460 380.178,242.460 380.258 C 242.460 380.338,242.595 380.287,242.760 380.146 C 243.924 379.144,245.612 378.747,247.216 379.097 C 248.700 379.422,248.596 379.392,249.359 379.722 C 249.723 379.880,250.048 380.009,250.082 380.009 C 250.115 380.009,250.564 380.278,251.078 380.607 C 251.592 380.935,252.087 381.205,252.177 381.205 C 252.268 381.205,252.368 381.270,252.399 381.349 C 252.431 381.428,253.094 382.006,253.873 382.633 C 254.653 383.260,255.525 384.040,255.813 384.367 C 256.102 384.697,256.423 384.912,256.532 384.850 C 256.640 384.789,256.677 384.795,256.614 384.865 C 256.496 384.996,256.590 385.131,257.744 386.481 C 258.114 386.915,258.512 387.386,258.627 387.527 C 260.107 389.336,261.222 390.581,261.969 391.261 C 263.396 392.558,265.929 394.532,266.167 394.532 C 266.285 394.532,266.382 394.590,266.382 394.660 C 266.383 394.789,267.629 395.464,268.794 395.968 C 271.371 397.083,277.138 396.694,278.020 395.346 C 278.077 395.258,278.154 395.204,278.191 395.226 C 278.269 395.273,279.400 394.669,280.137 394.188 C 280.419 394.003,280.765 393.800,280.906 393.735 C 281.047 393.670,281.200 393.573,281.247 393.520 C 281.294 393.466,281.756 393.196,282.273 392.921 C 283.202 392.427,286.275 390.636,293.691 386.270 C 295.790 385.035,297.824 383.849,298.212 383.635 C 298.600 383.421,298.968 383.165,299.029 383.065 C 299.091 382.966,299.209 382.888,299.293 382.893 C 299.376 382.898,300.406 382.336,301.581 381.645 C 302.755 380.954,305.716 379.213,308.159 377.776 C 310.602 376.338,313.255 374.784,314.054 374.322 C 314.853 373.860,315.553 373.406,315.611 373.313 C 315.668 373.221,315.771 373.162,315.839 373.184 C 316.001 373.235,320.464 370.565,321.217 369.965 C 322.450 368.984,323.110 368.341,323.110 368.119 C 323.110 367.993,323.248 367.815,323.418 367.724 C 323.889 367.472,324.643 365.776,325.013 364.137 C 325.196 363.328,325.430 362.320,325.534 361.897 C 326.067 359.716,326.179 358.932,326.182 357.348 C 326.187 354.853,325.425 350.891,324.370 347.927 C 324.093 347.150,323.979 346.576,324.062 346.389 C 324.345 345.761,324.136 344.342,323.793 344.554 C 323.716 344.601,323.698 344.474,323.751 344.271 C 323.817 344.018,323.785 343.941,323.649 344.024 C 323.523 344.102,323.452 344.015,323.452 343.785 C 323.452 343.564,323.525 343.468,323.641 343.540 C 323.847 343.667,323.756 343.271,323.352 342.285 C 323.161 341.817,323.056 341.741,322.719 341.826 C 321.693 342.083,319.973 332.912,320.763 331.391 C 321.002 330.930,322.768 329.114,322.768 329.329 C 322.768 329.379,323.120 329.269,323.551 329.084 C 324.777 328.559,326.146 328.641,327.809 329.339 C 328.091 329.458,329.667 330.036,331.311 330.625 C 332.956 331.214,334.532 331.792,334.814 331.910 C 335.241 332.089,336.467 332.520,336.779 332.600 C 336.826 332.613,336.980 332.672,337.121 332.733 C 343.159 335.330,352.230 336.470,354.154 334.873 C 354.277 334.771,354.378 334.736,354.378 334.796 C 354.378 335.198,358.072 332.717,358.269 332.182 C 358.325 332.032,358.510 331.785,358.681 331.633 C 358.852 331.481,358.993 331.289,358.995 331.206 C 358.996 331.123,359.186 330.877,359.415 330.659 C 359.644 330.442,359.928 330.000,360.044 329.677 C 360.161 329.354,360.300 329.090,360.354 329.090 C 360.408 329.090,360.642 328.725,360.875 328.279 C 361.108 327.832,361.346 327.428,361.404 327.381 C 361.463 327.334,361.752 326.842,362.047 326.286 C 362.342 325.731,362.650 325.193,362.731 325.090 C 362.812 324.988,363.156 324.374,363.497 323.726 C 363.838 323.079,364.203 322.444,364.309 322.317 C 364.415 322.189,364.448 322.085,364.383 322.085 C 364.318 322.085,364.385 321.964,364.533 321.816 C 364.681 321.668,364.801 321.444,364.801 321.318 C 364.801 321.191,364.866 321.062,364.946 321.031 C 365.088 320.975,366.132 319.158,366.893 317.642 C 367.105 317.219,367.356 316.791,367.450 316.690 C 367.544 316.589,367.774 316.206,367.962 315.838 C 368.150 315.470,368.400 315.067,368.517 314.942 C 368.635 314.816,368.778 314.527,368.835 314.298 C 368.892 314.070,369.003 313.883,369.080 313.883 C 369.209 313.883,369.510 313.180,369.431 313.064 C 369.412 313.036,369.593 312.780,369.833 312.495 C 370.231 312.022,370.298 311.874,370.255 311.553 C 370.246 311.493,370.314 311.397,370.405 311.339 C 370.625 311.199,374.028 305.264,374.028 305.019 C 374.028 304.913,374.096 304.827,374.178 304.827 C 374.261 304.827,374.430 304.577,374.553 304.272 C 374.677 303.966,374.827 303.678,374.888 303.631 C 375.023 303.527,377.104 299.795,377.104 299.657 C 377.104 299.604,377.373 299.151,377.702 298.652 C 378.031 298.152,378.300 297.646,378.300 297.526 C 378.300 297.407,378.367 297.309,378.450 297.309 C 378.533 297.309,378.701 297.059,378.825 296.754 C 378.948 296.448,379.096 296.160,379.153 296.113 C 379.380 295.925,380.185 294.404,380.058 294.401 C 379.984 294.400,380.006 294.342,380.107 294.273 C 380.208 294.204,380.477 293.802,380.705 293.379 C 380.933 292.956,381.162 292.572,381.215 292.525 C 381.474 292.292,382.547 290.165,382.453 290.071 C 382.393 290.011,382.433 289.962,382.543 289.962 C 382.653 289.962,382.742 289.896,382.742 289.817 C 382.742 289.737,383.127 289.026,383.597 288.236 C 384.066 287.447,384.451 286.713,384.451 286.606 C 384.451 286.500,384.565 286.193,384.704 285.924 C 384.844 285.655,385.041 285.012,385.142 284.495 C 385.243 283.977,385.533 282.708,385.786 281.674 C 387.345 275.296,385.010 270.674,376.762 263.811 C 375.493 262.756,372.528 260.289,370.172 258.329 C 365.618 254.541,364.609 253.383,364.362 251.665 C 364.088 249.761,370.587 246.693,376.455 245.955 C 376.839 245.907,377.238 245.814,377.342 245.749 C 377.446 245.684,377.633 245.616,377.758 245.597 C 377.883 245.578,378.113 245.506,378.270 245.438 C 378.623 245.284,378.745 245.253,379.496 245.120 C 379.825 245.062,380.517 244.935,381.034 244.837 C 381.551 244.740,382.166 244.625,382.401 244.581 C 382.636 244.537,383.520 244.378,384.366 244.228 C 385.211 244.078,385.980 243.896,386.074 243.824 C 386.168 243.751,386.822 243.522,387.527 243.315 C 388.232 243.107,388.896 242.866,389.004 242.778 C 389.112 242.690,389.377 242.585,389.592 242.543 C 389.977 242.469,391.739 241.628,393.080 240.878 C 394.856 239.884,397.205 237.032,397.705 235.261 C 397.847 234.757,398.044 234.075,398.142 233.746 C 398.240 233.417,398.381 232.802,398.457 232.379 C 398.532 231.956,398.775 230.957,398.998 230.158 L 399.402 228.706 399.402 202.648 L 399.402 176.591 399.017 175.139 C 397.585 169.733,392.639 166.299,384.366 164.966 C 383.426 164.814,382.311 164.588,381.888 164.462 C 381.465 164.336,380.466 164.189,379.667 164.134 C 374.738 163.797,369.449 162.484,368.046 161.249 C 366.217 159.639,366.116 158.675,367.559 156.569 C 367.828 156.176,368.048 155.772,368.048 155.672 C 368.048 155.571,368.106 155.489,368.176 155.488 C 368.246 155.487,368.496 155.199,368.731 154.847 C 369.350 153.920,370.363 153.054,371.181 152.752 C 371.662 152.575,371.975 152.321,372.149 151.968 C 372.442 151.371,373.084 150.534,373.248 150.534 C 373.397 150.534,378.332 146.211,379.315 145.220 C 380.772 143.750,382.361 141.823,382.122 141.815 C 382.040 141.812,382.108 141.731,382.273 141.635 C 382.437 141.539,382.572 141.385,382.572 141.291 C 382.572 141.198,382.725 140.957,382.913 140.755 C 383.101 140.553,383.255 140.288,383.255 140.164 C 383.255 140.041,383.324 139.940,383.409 139.940 C 383.494 139.940,383.846 139.383,384.191 138.701 C 384.536 138.020,384.959 137.309,385.129 137.121 C 387.140 134.909,388.552 131.362,388.552 128.523 C 388.552 125.486,387.954 123.958,384.764 118.838 C 383.768 117.240,381.283 113.204,379.242 109.868 C 377.200 106.531,374.625 102.341,373.520 100.555 C 372.415 98.770,369.839 94.579,367.797 91.243 C 365.754 87.907,363.540 84.293,362.877 83.212 C 358.657 76.336,353.998 74.258,346.240 75.791 C 342.697 76.491,342.166 76.670,333.618 80.051 C 329.264 81.773,327.484 82.111,324.857 81.714 C 319.073 80.840,318.365 77.996,321.993 70.226 C 322.846 68.400,323.255 67.161,323.529 65.566 C 323.590 65.210,323.699 64.957,323.772 65.002 C 323.961 65.118,324.677 63.578,324.539 63.354 C 324.473 63.248,324.503 63.217,324.607 63.281 C 324.992 63.519,325.412 61.918,325.092 61.429 C 324.835 61.036,324.832 60.918,325.067 60.102 C 326.063 56.633,326.459 49.593,325.779 47.416 C 324.425 43.077,323.181 41.885,315.079 37.168 C 313.340 36.156,309.996 34.194,307.646 32.809 C 305.297 31.423,300.914 28.846,297.907 27.082 C 294.900 25.318,290.517 22.743,288.167 21.360 C 275.680 14.008,275.733 14.032,272.122 14.231 C 267.335 14.495,263.792 17.235,256.608 26.228 C 252.337 31.576,252.389 31.520,250.563 32.735 C 246.101 35.704,243.071 35.821,241.195 33.097 C 240.571 32.191,240.547 32.096,239.803 27.493 C 239.387 24.918,239.004 22.632,238.953 22.415 C 238.868 22.054,238.911 22.023,239.421 22.073 C 239.927 22.122,239.988 22.079,240.039 21.639 C 240.075 21.323,240.030 21.191,239.911 21.265 C 239.809 21.327,239.727 21.297,239.727 21.198 C 239.727 21.098,239.804 21.017,239.897 21.017 C 240.159 21.017,240.101 20.561,239.800 20.260 C 239.652 20.112,239.614 19.991,239.714 19.991 C 239.815 19.991,239.897 19.876,239.897 19.735 C 239.897 19.594,239.831 19.479,239.750 19.479 C 239.669 19.479,239.641 19.283,239.686 19.044 C 239.742 18.750,239.665 18.523,239.449 18.347 C 239.273 18.204,239.235 18.141,239.364 18.208 C 239.521 18.289,239.574 18.250,239.522 18.093 C 239.480 17.962,239.220 17.779,238.945 17.685 C 238.122 17.403,238.068 17.315,237.943 16.052 C 237.098 7.473,232.536 1.639,226.062 0.858 C 224.743 0.699,177.797 0.637,176.420 0.793 M209.654 83.964 C 230.197 86.069,247.576 92.315,264.454 103.661 C 298.273 126.394,318.155 163.896,318.155 204.955 C 318.155 277.008,257.079 333.129,186.587 325.852 C 130.396 320.052,85.532 274.461,79.892 217.428 C 73.112 148.864,122.870 88.777,190.602 83.735 C 193.856 83.493,206.543 83.646,209.654 83.964 " stroke="none" fill="#000000" fill-rule="evenodd"></path></g></svg>